<svg xmlns="http://www.w3.org/2000/svg" width="375" viewBox="0 0 375 375" height="375" version="1.0"><g fill="#1E1A1A"><g><g><path d="M 100.871094 -124.09375 L 100.871094 -123.386719 C 110.796875 -121.257812 117.890625 -118.066406 111.332031 -102.820312 L 71.621094 -10.460938 L 34.746094 -102.820312 C 28.542969 -118.421875 35.808594 -122.320312 48.21875 -123.386719 L 48.21875 -124.09375 L 3.546875 -124.09375 C 6.203125 -121.789062 9.75 -116.472656 12.230469 -110.445312 L 57.4375 1.773438 L 56.90625 5.496094 L 73.570312 -6.027344 L 115.230469 -102.644531 C 121.789062 -117.890625 126.042969 -121.257812 133.488281 -123.386719 L 133.488281 -124.09375 Z M 100.871094 -124.09375" transform="translate(59.159 257.956)"/></g></g></g><g fill="#1E1A1A"><g><g><path d="M 98.566406 -23.402344 L 76.582031 -53.183594 C 98.390625 -58.5 111.683594 -73.039062 111.683594 -91.476562 C 111.683594 -113.28125 93.425781 -124.09375 64.882812 -124.09375 L 2.660156 -124.09375 L 2.660156 -123.207031 C 9.925781 -122.320312 16.132812 -120.371094 16.132812 -113.988281 L 16.132812 -10.105469 C 16.132812 -3.722656 9.925781 -1.773438 2.660156 -0.886719 L 2.660156 0 L 47.6875 0 L 47.6875 -0.886719 C 40.417969 -1.773438 34.214844 -3.722656 34.214844 -10.105469 L 34.214844 -50.878906 L 58.324219 -50.878906 L 92.894531 -3.015625 L 92.894531 0 L 124.980469 0 L 124.980469 -0.53125 C 115.761719 -5.140625 109.027344 -9.042969 98.566406 -23.402344 Z M 34.214844 -57.96875 L 34.214844 -120.902344 L 55.3125 -120.902344 C 88.640625 -120.902344 93.957031 -102.644531 93.957031 -84.914062 C 93.957031 -60.273438 84.03125 -54.070312 62.046875 -54.070312 C 52.472656 -54.070312 43.609375 -55.3125 34.214844 -57.96875 Z M 34.214844 -57.96875" transform="translate(192.642 257.956)"/></g></g></g><g fill="#1E1A1A"><g><g><path d="M -28.03125 -12.28125 L -4.328125 -11.15625 L -3.5 -9.046875 L -20.265625 7.75 L -21.171875 5.4375 L -6.59375 -9.109375 L -27.1875 -10.109375 Z M -28.03125 -12.28125" transform="translate(106.824 256.242)"/></g></g></g><g fill="#1E1A1A"><g><g><path d="M -9.40625 1.640625 L -12.34375 -5.9375 L -10.546875 -6.625 L -7.609375 0.953125 Z M -9.40625 1.640625" transform="translate(97.216 231.443)"/></g></g></g><g fill="#1E1A1A"><g><g><path d="M -6.625 -17.125 L -11.34375 -9.96875 C -11.070312 -9.476562 -10.828125 -8.953125 -10.609375 -8.390625 L -8.515625 -2.953125 L -2.109375 -5.4375 L -1.28125 -3.296875 L -21.515625 4.546875 L -24.4375 -3.03125 C -25.445312 -5.613281 -25.613281 -7.875 -24.9375 -9.8125 C -24.269531 -11.75 -22.859375 -13.132812 -20.703125 -13.96875 C -19.117188 -14.582031 -17.628906 -14.703125 -16.234375 -14.328125 C -14.835938 -13.953125 -13.613281 -13.117188 -12.5625 -11.828125 L -7.53125 -19.453125 Z M -12.421875 -7.625 C -13.191406 -9.625 -14.226562 -10.984375 -15.53125 -11.703125 C -16.832031 -12.421875 -18.285156 -12.46875 -19.890625 -11.84375 C -21.523438 -11.207031 -22.570312 -10.1875 -23.03125 -8.78125 C -23.5 -7.382812 -23.347656 -5.6875 -22.578125 -3.6875 L -20.5 1.6875 L -10.34375 -2.25 Z M -12.421875 -7.625" transform="translate(91.147 215.777)"/></g></g></g><g fill="#1E1A1A"><g><g><path d="M -11.59375 -13.890625 L -7.234375 -2.609375 L -0.890625 -2.28125 L -0.015625 -0.0625 L -23.84375 -1.46875 L -24.65625 -3.578125 L -8.015625 -20.671875 L -7.140625 -18.421875 Z M -13.03125 -12.4375 L -22.015625 -3.359375 L -9.265625 -2.734375 Z M -13.03125 -12.4375" transform="translate(81.259 190.255)"/></g></g></g><g fill="#1E1A1A"><g><g><path d="M -4.5 -12.140625 C -3.726562 -10.140625 -3.472656 -8.160156 -3.734375 -6.203125 C -3.992188 -4.253906 -4.734375 -2.519531 -5.953125 -1 C -7.171875 0.519531 -8.75 1.660156 -10.6875 2.421875 C -12.644531 3.171875 -14.582031 3.390625 -16.5 3.078125 C -18.425781 2.773438 -20.144531 1.984375 -21.65625 0.703125 C -23.175781 -0.566406 -24.320312 -2.203125 -25.09375 -4.203125 C -25.675781 -5.703125 -25.960938 -7.1875 -25.953125 -8.65625 C -25.953125 -10.125 -25.640625 -11.488281 -25.015625 -12.75 L -23.125 -11.921875 C -24.113281 -9.710938 -24.144531 -7.40625 -23.21875 -5 C -22.59375 -3.40625 -21.660156 -2.09375 -20.421875 -1.0625 C -19.179688 -0.0390625 -17.78125 0.59375 -16.21875 0.84375 C -14.664062 1.101562 -13.097656 0.925781 -11.515625 0.3125 C -9.941406 -0.300781 -8.660156 -1.222656 -7.671875 -2.453125 C -6.691406 -3.691406 -6.085938 -5.109375 -5.859375 -6.703125 C -5.628906 -8.304688 -5.828125 -9.90625 -6.453125 -11.5 C -7.390625 -13.925781 -8.972656 -15.609375 -11.203125 -16.546875 L -10.359375 -18.4375 C -9.054688 -17.914062 -7.898438 -17.113281 -6.890625 -16.03125 C -5.878906 -14.945312 -5.082031 -13.648438 -4.5 -12.140625 Z M -4.5 -12.140625" transform="translate(71.439 164.907)"/></g></g></g></svg>